G04 EAGLE Gerber RS-274X export*
G75*
%MOMM*%
%FSLAX34Y34*%
%LPD*%
%INSolderpaste Top*%
%IPPOS*%
%AMOC8*
5,1,8,0,0,1.08239X$1,22.5*%
G01*
%ADD10R,1.500000X0.500000*%
%ADD11R,0.500000X1.500000*%


D10*
X-558380Y40000D03*
X-558380Y32000D03*
X-558380Y24000D03*
X-558380Y16000D03*
X-558380Y8000D03*
X-558380Y0D03*
X-558380Y-8000D03*
X-558380Y-16000D03*
X-558380Y-24000D03*
X-558380Y-32000D03*
X-558380Y-40000D03*
D11*
X-540380Y-58000D03*
X-532380Y-58000D03*
X-524380Y-58000D03*
X-516380Y-58000D03*
X-508380Y-58000D03*
X-500380Y-58000D03*
X-492380Y-58000D03*
X-484380Y-58000D03*
X-476380Y-58000D03*
X-468380Y-58000D03*
X-460380Y-58000D03*
D10*
X-442380Y-40000D03*
X-442380Y-32000D03*
X-442380Y-24000D03*
X-442380Y-16000D03*
X-442380Y-8000D03*
X-442380Y0D03*
X-442380Y8000D03*
X-442380Y16000D03*
X-442380Y24000D03*
X-442380Y32000D03*
X-442380Y40000D03*
D11*
X-460380Y58000D03*
X-468380Y58000D03*
X-476380Y58000D03*
X-484380Y58000D03*
X-492380Y58000D03*
X-500380Y58000D03*
X-508380Y58000D03*
X-516380Y58000D03*
X-524380Y58000D03*
X-532380Y58000D03*
X-540380Y58000D03*
M02*
