M48
;GenerationSoftware,Autodesk,EAGLE,9.3.0*%
;CreationDate,2019-04-11T16:02:13Z*%
FMAT,2
ICI,OFF
METRIC,TZ,000.000
T6C0.350
T5C0.800
T4C0.813
T3C1.000
T2C1.016
T1C1.900
%
G90
M71
T1
X-96010Y-26090
X-96010Y-33390
T2
X-2513Y-9013
X-2513Y-6473
X-97551Y-21745
X-97551Y-19205
X-97551Y-16665
X-97551Y-14125
X-97551Y-11585
X-97551Y-9045
X-97551Y-6505
X-97551Y-3965
X-27178Y-43815
X-32258Y-43815
X-52500Y-19670
X-57580Y-19670
X-2513Y-14093
X-2513Y-11553
X-97557Y17747
X-97490Y32495
X-97557Y15207
X-97557Y12667
X-97557Y10127
X-97557Y7587
X-97557Y5047
X-97557Y2507
X-97557Y-33
X-2573Y-2051
X-2573Y489
X-2573Y3029
X-2573Y5569
X-2573Y8109
X-2573Y10649
X-2573Y13189
X-2573Y15729
X-97490Y29955
X-97490Y35035
X-97490Y37575
X-97490Y40115
X-20720Y2140
X-23260Y2140
X-25800Y2140
X-2513Y-24253
X-2513Y-21713
X-2513Y-19173
X-2513Y-16633
T3
X-97240Y-38940
X-97240Y-46940
T4
X-57150Y-43180
X-52070Y-43180
X-79850Y-43500
X-77310Y-43500
X-42862Y24698
X-42862Y27238
X-66200Y27500
X-66200Y17340
X-50068Y17238
X-50068Y27398
X-60960Y27488
X-55372Y17343
X-55372Y27503
X-68500Y-43260
X-69770Y-41355
X-71040Y-43260
X-55850Y-26990
X-53310Y-26990
X-65410Y-30160
X-55910Y-34990
X-53370Y-34990
X-43688Y-35052
X-41148Y-35052
X-72390Y22860
X-74930Y22860
X-43688Y-43466
X-41148Y-43466
X-65410Y-25080
X-60960Y17328
T5
X-97240Y-42940
X-90910Y-31340
X-92110Y-28940
X-97240Y-40940
X-92110Y-30540
X-97240Y-44940
X-90910Y-28140
X-90910Y-29740
T6
X-85090Y-26670
X-83820Y1270
X-55587Y12993
X-74930Y10160
X-68580Y16510
X-87630Y-31750
X-88773Y-28194
X-8890Y-11407
X-15240Y-8867
X-45720Y0
X-48260Y-2540
X-53340Y-1270
X-48309Y2589
X-74930Y-39370
X-74930Y-36830
X-74930Y-22860
X-55880Y10160
X-53340Y-10160
X-68580Y-3810
X-46990Y-3810
X-71120Y-1270
X-54610Y-10160
X-67310Y-2540
X-73863Y0
X-67807Y6085
X-51689Y9017
X-52070Y13970
X-74930Y0
X-64770Y10160
X-62230Y12700
X-70993Y5991
X-75269Y1736
X-86360Y-7620
X-88900Y-10160
X-92583Y-14097
X-95377Y-14097
X-71120Y-15240
X-80759Y-22324
X-76200Y-19050
X-80010Y-22860
X-49530Y8890
X-66040Y0
X-81280Y-19050
X-83820Y-22324
X-43815Y6985
X-45720Y15240
X-34290Y5080
X-58466Y25446
X-12700Y-8867
X-59690Y13970
X-93980Y-7620
X-10160Y-11430
X-41176Y866
X-7620Y-15240
X-7620Y-20320
X-43180Y5080
X-13970Y-8867
X-11430Y-11430
X-69850Y34290
X-67310Y34290
X-53340Y31750
X-43180Y-8890
X-40640Y-10160
X-49530Y12938
X-47039Y-8939
X-57150Y21590
X-67310Y11430
M30